<svg
      xmlns="http://www.w3.org/2000/svg"
      fillRule="evenodd"
      strokeLinejoin="round"
      strokeMiterlimit="2"
      clipRule="evenodd"
      viewBox="0 0 209 266"
    >
      <g fillRule="nonzero">
        <path
          fill="#e11c2c"
          d="M178.146 37.454H33.423c-6.33 0-11.461 5.131-11.461 11.461v204.678c0 6.33 5.131 11.461 11.461 11.461h144.723c6.329 0 11.46-5.131 11.46-11.461V48.915c0-6.33-5.131-11.461-11.46-11.461z"
        ></path>
        <path
          fill="#333"
          fillOpacity="0.15"
          d="M178.146 37.454H33.423c-1.882 0-3.652.462-5.219 1.266v196.146c0 13.204 10.742 23.946 23.945 23.946H188.34a11.402 11.402 0 001.265-5.219V48.915c.001-6.329-5.13-11.461-11.459-11.461z"
        ></path>
        <path
          fill="#efeae6"
          d="M196.873 18.727H52.15c-6.329 0-11.461 5.131-11.461 11.461v204.678c0 6.329 5.132 11.461 11.461 11.461h144.723c6.329 0 11.46-5.132 11.46-11.461V30.188c0-6.33-5.131-11.461-11.46-11.461z"
        ></path>
        <path
          fill="#333"
          fillOpacity="0.15"
          d="M202.091 19.992a11.401 11.401 0 00-5.218-1.265H52.15c-6.329 0-11.461 5.131-11.461 11.461v204.678c0 1.881.462 3.652 1.266 5.218h136.19c13.203 0 23.945-10.742 23.945-23.945V19.992h.001z"
        ></path>
        <path
          fill="#e84855"
          d="M178.146 0H33.423c-6.33 0-11.461 5.131-11.461 11.46v204.679c0 6.329 5.131 11.46 11.461 11.46h144.723c6.329 0 11.46-5.131 11.46-11.46V11.46c0-6.329-5.131-11.46-11.46-11.46z"
        ></path>
        <g fill="#293133">
          <path d="M21.963 51.253h-5.252C7.497 51.253 0 43.756 0 34.541 0 25.327 7.497 17.83 16.711 17.83h16.041a4.682 4.682 0 110 9.364H16.711c-4.052 0-7.348 3.296-7.348 7.348s3.296 7.348 7.348 7.348h5.251a4.681 4.681 0 11.001 9.363zM21.963 90.882h-5.252C7.497 90.882 0 83.385 0 74.171c0-9.215 7.497-16.712 16.711-16.712h16.041a4.682 4.682 0 110 9.364H16.711c-4.052 0-7.348 3.296-7.348 7.348s3.296 7.348 7.348 7.348h5.251a4.681 4.681 0 11.001 9.363zM21.963 130.512h-5.252C7.497 130.512 0 123.014 0 113.8c0-9.214 7.497-16.711 16.711-16.711h16.041a4.682 4.682 0 110 9.364H16.711c-4.052 0-7.348 3.296-7.348 7.348s3.296 7.348 7.348 7.348h5.251a4.681 4.681 0 11.001 9.363zM21.963 170.14h-5.252C7.497 170.14 0 162.644 0 153.429c0-9.215 7.497-16.711 16.711-16.711h16.041a4.682 4.682 0 110 9.363H16.711c-4.052 0-7.348 3.296-7.348 7.348s3.296 7.348 7.348 7.348h5.251a4.681 4.681 0 11.001 9.363zM21.963 209.77h-5.252C7.497 209.77 0 202.273 0 193.059c0-9.216 7.497-16.712 16.711-16.712h16.041a4.682 4.682 0 110 9.364H16.711c-4.052 0-7.348 3.296-7.348 7.348s3.296 7.348 7.348 7.348h5.251a4.681 4.681 0 11.001 9.363z"></path>
        </g>
      </g>
    </svg>