<?xml version="1.0" encoding="UTF-8" standalone="no"?><!DOCTYPE svg PUBLIC "-//W3C//DTD SVG 1.1//EN" "http://www.w3.org/Graphics/SVG/1.1/DTD/svg11.dtd"><svg width="100%" height="100%" viewBox="0 0 209 266" version="1.1" xmlns="http://www.w3.org/2000/svg" xmlns:xlink="http://www.w3.org/1999/xlink" xml:space="preserve" xmlns:serif="http://www.serif.com/" style="fill-rule:evenodd;clip-rule:evenodd;stroke-linejoin:round;stroke-miterlimit:2;"><g><path d="M178.146,37.454l-144.723,0c-6.33,0 -11.461,5.131 -11.461,11.461l0,204.678c0,6.33 5.131,11.461 11.461,11.461l144.723,-0c6.329,-0 11.46,-5.131 11.46,-11.461l0,-204.678c-0,-6.33 -5.131,-11.461 -11.46,-11.461Z" style="fill:#e11c2c;fill-rule:nonzero;"/><path d="M178.146,37.454l-144.723,0c-1.882,0 -3.652,0.462 -5.219,1.266l0,196.146c0,13.204 10.742,23.946 23.945,23.946l136.191,-0c0.803,-1.566 1.265,-3.337 1.265,-5.219l0,-204.678c0.001,-6.329 -5.13,-11.461 -11.459,-11.461Z" style="fill:#333;fill-opacity:0.15;fill-rule:nonzero;"/><path d="M196.873,18.727l-144.723,0c-6.329,0 -11.461,5.131 -11.461,11.461l0,204.678c0,6.329 5.132,11.461 11.461,11.461l144.723,-0c6.329,-0 11.46,-5.132 11.46,-11.461l0,-204.678c-0,-6.33 -5.131,-11.461 -11.46,-11.461Z" style="fill:#efeae6;fill-rule:nonzero;"/><path d="M202.091,19.992c-1.566,-0.803 -3.337,-1.265 -5.218,-1.265l-144.723,0c-6.329,0 -11.461,5.131 -11.461,11.461l0,204.678c0,1.881 0.462,3.652 1.266,5.218l136.19,0c13.203,0 23.945,-10.742 23.945,-23.945l0,-196.147l0.001,0Z" style="fill:#333;fill-opacity:0.15;fill-rule:nonzero;"/><path d="M178.146,0l-144.723,0c-6.33,0 -11.461,5.131 -11.461,11.46l0,204.679c0,6.329 5.131,11.46 11.461,11.46l144.723,0c6.329,0 11.46,-5.131 11.46,-11.46l0,-204.679c-0,-6.329 -5.131,-11.46 -11.46,-11.46Z" style="fill:#e84855;fill-rule:nonzero;"/><g><path d="M21.963,51.253l-5.252,-0c-9.214,-0 -16.711,-7.497 -16.711,-16.712c-0,-9.214 7.497,-16.711 16.711,-16.711l16.041,0c2.586,0 4.682,2.096 4.682,4.682c-0,2.586 -2.096,4.682 -4.682,4.682l-16.041,-0c-4.052,-0 -7.348,3.296 -7.348,7.348c0,4.052 3.296,7.348 7.348,7.348l5.251,-0c2.587,-0 4.682,2.096 4.682,4.682c0,2.584 -2.095,4.681 -4.681,4.681Z" style="fill:#293133;fill-rule:nonzero;"/><path d="M21.963,90.882l-5.252,-0c-9.214,-0 -16.711,-7.497 -16.711,-16.711c-0,-9.215 7.497,-16.712 16.711,-16.712l16.041,0c2.586,0 4.682,2.096 4.682,4.682c-0,2.586 -2.096,4.682 -4.682,4.682l-16.041,0c-4.052,0 -7.348,3.296 -7.348,7.348c0,4.052 3.296,7.348 7.348,7.348l5.251,0c2.587,0 4.682,2.096 4.682,4.682c0,2.586 -2.095,4.681 -4.681,4.681Z" style="fill:#293133;fill-rule:nonzero;"/><path d="M21.963,130.512l-5.252,-0c-9.214,-0 -16.711,-7.498 -16.711,-16.712c-0,-9.214 7.497,-16.711 16.711,-16.711l16.041,-0c2.586,-0 4.682,2.096 4.682,4.682c-0,2.586 -2.096,4.682 -4.682,4.682l-16.041,-0c-4.052,-0 -7.348,3.296 -7.348,7.348c0,4.052 3.296,7.348 7.348,7.348l5.251,-0c2.587,-0 4.682,2.096 4.682,4.682c0,2.586 -2.095,4.681 -4.681,4.681Z" style="fill:#293133;fill-rule:nonzero;"/><path d="M21.963,170.14l-5.252,0c-9.214,0 -16.711,-7.496 -16.711,-16.711c-0,-9.215 7.497,-16.711 16.711,-16.711l16.041,-0c2.586,-0 4.682,2.096 4.682,4.681c-0,2.586 -2.096,4.682 -4.682,4.682l-16.041,0c-4.052,0 -7.348,3.296 -7.348,7.348c0,4.052 3.296,7.348 7.348,7.348l5.251,0c2.587,0 4.682,2.096 4.682,4.682c0,2.585 -2.095,4.681 -4.681,4.681Z" style="fill:#293133;fill-rule:nonzero;"/><path d="M21.963,209.77l-5.252,-0c-9.214,-0 -16.711,-7.497 -16.711,-16.711c-0,-9.216 7.497,-16.712 16.711,-16.712l16.041,0c2.586,0 4.682,2.096 4.682,4.682c-0,2.586 -2.096,4.682 -4.682,4.682l-16.041,0c-4.052,0 -7.348,3.296 -7.348,7.348c0,4.052 3.296,7.348 7.348,7.348l5.251,0c2.587,0 4.682,2.096 4.682,4.682c0,2.586 -2.095,4.681 -4.681,4.681Z" style="fill:#293133;fill-rule:nonzero;"/></g></g></svg>