<svg
      xmlns="http://www.w3.org/2000/svg"
      fillRule="evenodd"
      strokeLinejoin="round"
      strokeMiterlimit="2"
      clipRule="evenodd"
      viewBox="0 0 869 1105"
    >
      <path
        fill="#c17f00"
        fillRule="nonzero"
        d="M742.275 156.058H139.263c-26.375 0-47.755 21.38-47.755 47.755v852.825c0 26.375 21.38 47.754 47.755 47.754h603.012c26.371 0 47.75-21.379 47.75-47.755V203.813c0-26.375-21.379-47.755-47.75-47.755z"
      ></path>
      <path
        fill="#333"
        fillRule="nonzero"
        d="M742.275 156.058H139.263c-7.842 0-15.217 1.925-21.746 5.275v817.275c0 55.017 44.758 99.775 99.771 99.775H784.75a47.514 47.514 0 005.271-21.745V203.812c.004-26.37-21.375-47.754-47.746-47.754z"
      ></path>
      <path
        fill="#efeae6"
        fillRule="nonzero"
        d="M820.304 78.029H217.292c-26.371 0-47.754 21.379-47.754 47.754v852.825c0 26.371 21.383 47.754 47.754 47.754h603.012c26.371 0 47.75-21.383 47.75-47.754V125.783c0-26.375-21.379-47.754-47.75-47.754z"
      ></path>
      <path
        fill="#333"
        fillRule="nonzero"
        d="M842.046 83.3a47.502 47.502 0 00-21.742-5.271H217.292c-26.371 0-47.755 21.379-47.755 47.754v852.825c0 7.838 1.925 15.217 5.275 21.742h567.459c55.012 0 99.771-44.758 99.771-99.771V83.3h.004z"
      ></path>
      <path
        fill="#fea700"
        fillRule="nonzero"
        d="M742.275 0H139.263c-26.375 0-47.755 21.379-47.755 47.75v852.829c0 26.371 21.38 47.75 47.755 47.75h603.012c26.371 0 47.75-21.379 47.75-47.75V47.75c0-26.371-21.379-47.75-47.75-47.75z"
      ></path>
      <path
        fill="#293133"
        fillRule="nonzero"
        d="M91.513 213.554H69.629C31.237 213.554 0 182.317 0 143.921c0-38.392 31.238-69.629 69.629-69.629h66.838c10.702 0 19.508 8.806 19.508 19.508s-8.806 19.508-19.508 19.508H69.629c-16.883 0-30.617 13.734-30.617 30.617.001 16.883 13.734 30.617 30.617 30.617H91.51c10.701 0 19.507 8.805 19.507 19.506 0 10.7-8.804 19.505-19.504 19.506zm0 165.121H69.629C31.237 378.675 0 347.438 0 309.046c0-38.396 31.238-69.633 69.629-69.633h66.838c10.702 0 19.508 8.806 19.508 19.508s-8.806 19.508-19.508 19.508H69.629c-16.883 0-30.617 13.734-30.617 30.617.001 16.883 13.734 30.617 30.617 30.617l21.881-.001c10.701 0 19.507 8.806 19.507 19.507 0 10.7-8.804 19.505-19.504 19.506zm0 165.125H69.629C31.237 543.8 0 512.558 0 474.167c0-38.392 31.238-69.629 69.629-69.629h66.838c10.702 0 19.508 8.806 19.508 19.508s-8.806 19.508-19.508 19.508H69.629c-16.883 0-30.617 13.734-30.617 30.617.001 16.883 13.734 30.617 30.617 30.617l21.881-.001c10.701 0 19.507 8.806 19.507 19.507 0 10.7-8.804 19.505-19.504 19.506zm0 165.117H69.629C31.237 708.917 0 677.683 0 639.288c0-38.396 31.238-69.63 69.629-69.63h66.838l.285-.002c10.702 0 19.508 8.807 19.508 19.509s-8.806 19.508-19.508 19.508l-.285-.002H69.629c-16.883 0-30.617 13.733-30.617 30.617.001 16.883 13.734 30.616 30.617 30.616H91.51c10.701 0 19.507 8.806 19.507 19.506 0 10.7-8.804 19.506-19.504 19.507zm0 165.125H69.629C31.237 874.042 0 842.804 0 804.413c0-38.4 31.238-69.634 69.629-69.634h66.838c10.702 0 19.508 8.807 19.508 19.509 0 10.701-8.806 19.508-19.508 19.508H69.629c-16.883 0-30.617 13.733-30.617 30.617.001 16.883 13.734 30.616 30.617 30.616H91.51c10.701 0 19.507 8.806 19.507 19.506 0 10.7-8.804 19.506-19.504 19.507z"
      ></path>
    </svg>